<?xml version="1.0" standalone="no"?>
<!DOCTYPE svg PUBLIC "-//W3C//DTD SVG 20010904//EN"
 "http://www.w3.org/TR/2001/REC-SVG-20010904/DTD/svg10.dtd">
<svg version="1.0" xmlns="http://www.w3.org/2000/svg"
 width="75" height="75" viewBox="0 0 512.000000 512.000000"
 preserveAspectRatio="xMidYMid meet">

<g transform="translate(0.000000,512.000000) scale(0.100000,-0.100000)"
fill="#fff" stroke="none">
<path d="M2345 4548 c-672 -68 -1279 -497 -1581 -1113 -488 -1000 -66 -2201
943 -2682 545 -259 1186 -255 1728 11 628 309 1044 908 1115 1605 35 352 -30
722 -183 1044 -368 772 -1170 1222 -2022 1135z m390 -318 c207 -23 389 -76
567 -165 496 -247 827 -698 920 -1255 7 -41 12 -154 12 -250 0 -96 -5 -209
-12 -250 -70 -416 -273 -776 -582 -1034 -643 -536 -1557 -526 -2187 24 -632
550 -756 1492 -290 2191 346 517 962 807 1572 739z"/>
<path d="M2033 3350 c-12 -5 -30 -24 -40 -42 -17 -31 -18 -77 -18 -723 0 -686
0 -690 22 -737 25 -54 56 -78 112 -85 60 -8 128 19 286 112 191 112 456 263
660 375 276 152 338 196 353 256 22 86 -25 138 -238 259 -85 48 -249 143 -365
210 -667 389 -699 404 -772 375z"/>
</g>
</svg>
